<?xml version="1.0" encoding="UTF-8" standalone="no"?>
<svg
   xmlns:dc="http://purl.org/dc/elements/1.1/"
   xmlns:cc="http://creativecommons.org/ns#"
   xmlns:rdf="http://www.w3.org/1999/02/22-rdf-syntax-ns#"
   xmlns:svg="http://www.w3.org/2000/svg"
   xmlns="http://www.w3.org/2000/svg"
   xmlns:sodipodi="http://sodipodi.sourceforge.net/DTD/sodipodi-0.dtd"
   xmlns:inkscape="http://www.inkscape.org/namespaces/inkscape"
   viewBox="0 0 1434.96 1437.2667"
   height="1437.2667"
   width="1434.96"
   xml:space="preserve"
   id="svg2"
   version="1.1"
   sodipodi:docname="Mandala.svg"
   inkscape:version="0.92.4 (5da689c313, 2019-01-14)"><sodipodi:namedview
     pagecolor="#ffffff"
     bordercolor="#666666"
     borderopacity="1"
     objecttolerance="10"
     gridtolerance="10"
     guidetolerance="10"
     inkscape:pageopacity="0"
     inkscape:pageshadow="2"
     inkscape:window-width="1920"
     inkscape:window-height="1017"
     id="namedview30"
     showgrid="false"
     inkscape:zoom="0.46442932"
     inkscape:cx="820.51235"
     inkscape:cy="695.94473"
     inkscape:window-x="1912"
     inkscape:window-y="-8"
     inkscape:window-maximized="1"
     inkscape:current-layer="g12" /><metadata
     id="metadata8"><rdf:RDF><cc:Work
         rdf:about=""><dc:format>image/svg+xml</dc:format><dc:type
           rdf:resource="http://purl.org/dc/dcmitype/StillImage" /></cc:Work></rdf:RDF></metadata><defs
     id="defs6"><clipPath
       id="clipPath18"
       clipPathUnits="userSpaceOnUse"><path
         id="path16"
         d="M 0,1077.952 H 1076.217 V 0 H 0 Z" /></clipPath><clipPath
       id="clipPath26"
       clipPathUnits="userSpaceOnUse"><path
         id="path24"
         d="M 20.6417,1060.83 H 1057.92 V 23.5537 H 20.6417 Z" /></clipPath></defs><g
     transform="matrix(1.3333333,0,0,-1.3333333,0,1437.2667)"
     id="g10"><g
       id="g12"><g
         id="g20"><g
           id="g22" /><g
           id="g34"><g
             clip-path="url(#clipPath26)"
             id="g32"
             style="opacity:0.63999897"><g
               transform="translate(1001.4005,306.9961)"
               id="g30"><path
                 inkscape:connector-curvature="0"
                 d="m 0,0 c -129.896,-255.222 -442.095,-356.818 -697.316,-226.923 -255.222,129.896 -356.819,442.095 -226.923,697.317 129.896,255.221 442.095,356.818 697.317,226.922 C 28.299,567.421 129.896,255.222 0,0"
                 style="fill:#feff17;fill-opacity:1;fill-rule:nonzero;stroke:none"
                 id="path28" /></g></g></g></g><g
         id="g36"
         transform="translate(341.7061,935.7226)"><path
           inkscape:connector-curvature="0"
           d="m 0,0 c 1.907,9.749 12.546,59.569 56.326,97.541 43.629,37.841 93.719,40.973 141.503,43.962 26.696,1.67 104.495,3.835 195.491,-35.729 109.673,-47.686 176.092,-128.849 172.692,-133.25 -2.051,-2.654 -29.054,23.164 -81.055,37.093 -10.424,2.792 -37.028,9.171 -71.439,8.243 -24.239,-0.654 -75.861,-2.047 -116.774,-31.598 -53.292,-38.493 -31.949,-83.979 -85.176,-123.644 -6.644,-4.951 -51.747,-37.444 -109.906,-26.102 -6.558,1.279 -63.845,13.439 -92.045,67.317 C -11.079,-56.627 -3.617,-18.486 0,0"
           style="fill:#ff3102;fill-opacity:1;fill-rule:nonzero;stroke:none"
           id="path38" /></g><g
         id="g40"
         transform="translate(705.6056,854.4059)"
         style="fill:#f29c50;fill-opacity:1"><path
           inkscape:connector-curvature="0"
           d="m 0,0 c -32.393,-51.466 -14.1,-107.099 -11.908,-113.411 19.437,-55.976 70.203,-78.625 77.823,-81.878 61.049,-26.067 89.636,15.252 149.705,-11.459 46.115,-20.507 73.274,-64.429 86.027,-85.053 18.104,-29.278 25.966,-55.481 28.794,-65.896 14.106,-51.953 5.366,-88.276 8.691,-88.715 5.514,-0.726 42.277,97.496 28.352,216.274 -11.552,98.55 -52.542,164.71 -67.408,186.947 C 273.467,-3.389 245.573,38.334 190.927,57.02 136.092,75.772 87.678,59.919 78.292,56.666 60.494,50.497 23.773,37.77 0,0"
           style="fill:#f29c50;fill-opacity:1;fill-rule:nonzero;stroke:none"
           id="path42" /></g><g
         id="g44"
         transform="translate(896.4916,557.3428)"
         style="fill:#7dbf3b;fill-opacity:1"><path
           inkscape:connector-curvature="0"
           d="m 0,0 c -60.784,1.831 -99.464,-42.141 -103.794,-47.231 -38.395,-45.132 -32.181,-100.372 -31.123,-108.59 8.481,-65.837 58.59,-69.531 66.018,-134.85 5.703,-50.146 -18.388,-95.823 -29.7,-117.271 -16.059,-30.449 -34.659,-50.509 -42.203,-58.227 -37.63,-38.497 -73.371,-49.378 -72.063,-52.466 2.17,-5.122 105.471,12.985 200.795,85.204 79.09,59.919 115.338,128.792 126.969,152.879 20.818,43.114 42.641,88.31 31.044,144.886 -11.637,56.773 -49.846,90.467 -57.408,96.908 C 74.195,-26.543 44.608,-1.343 0,0"
           style="fill:#7dbf3b;fill-opacity:1;fill-rule:nonzero;stroke:none"
           id="path46" /></g><g
         id="g48"
         transform="translate(732.466,239.132)"><path
           inkscape:connector-curvature="0"
           d="m 0,0 c -28.387,53.78 -85.716,65.741 -92.279,66.997 -58.198,11.14 -103.187,-21.51 -109.814,-26.484 -53.089,-39.849 -31.589,-85.261 -84.746,-123.938 -40.81,-29.693 -92.427,-31.265 -116.664,-32.003 -34.408,-1.048 -61.033,5.239 -71.467,7.995 -52.049,13.748 -79.142,39.472 -81.183,36.811 -3.386,-4.413 63.315,-85.345 173.153,-132.65 91.132,-39.248 168.923,-36.812 195.614,-35.05 47.773,3.154 97.852,6.461 141.349,44.453 43.648,38.124 54.114,87.98 55.988,97.736 C 13.503,-77.634 20.833,-39.468 0,0"
           style="fill:#65fdff;fill-opacity:1;fill-rule:nonzero;stroke:none"
           id="path50" /></g><g
         id="g52"
         transform="translate(378.6788,222.8239)"><path
           inkscape:connector-curvature="0"
           d="m 0,0 c 32.142,51.623 13.579,107.167 11.356,113.468 -19.71,55.88 -70.585,78.282 -78.221,81.498 -61.176,25.769 -89.561,-15.689 -149.759,10.73 -46.214,20.281 -73.587,64.071 -86.44,84.632 -18.247,29.19 -26.236,55.355 -29.115,65.756 -14.359,51.883 -5.796,88.249 -9.123,88.671 -5.518,0.7 -41.801,-97.7 -27.299,-216.409 12.033,-98.493 53.344,-164.453 68.318,-186.617 26.803,-39.672 54.899,-81.258 109.636,-99.679 54.926,-18.484 103.262,-2.395 112.632,0.904 C -60.247,-50.791 -23.588,-37.885 0,0"
           style="fill:#3364ff;fill-opacity:1;fill-rule:nonzero;stroke:none"
           id="path54" /></g><g
         id="g56"
         transform="translate(186.0788,524.492)"
         style="fill:#a663a1;fill-opacity:1"><path
           inkscape:connector-curvature="0"
           d="m 0,0 c 60.761,-2.482 99.911,41.072 104.295,46.115 38.876,44.718 33.255,100.022 32.285,108.251 -7.775,65.924 -57.841,70.155 -64.568,135.549 -5.165,50.204 19.414,95.621 30.956,116.947 16.384,30.274 35.198,50.134 42.824,57.77 38.042,38.092 73.896,48.589 72.622,51.691 C 216.299,521.467 112.81,504.469 16.717,433.277 -63.011,374.209 -99.995,305.729 -111.884,281.768 -133.163,238.879 -155.469,193.921 -144.48,137.223 -133.453,80.329 -95.607,46.227 -88.114,39.705 -73.906,27.338 -44.591,1.822 0,0"
           style="fill:#a663a1;fill-opacity:1;fill-rule:nonzero;stroke:none"
           id="path58" /></g></g></g></svg>